<svg id="圖層_1" data-name="圖層 1" xmlns="http://www.w3.org/2000/svg" viewBox="0 0 200 104.25"><title>logo</title><path d="M16.89,8.51c-.52-1.14-.31-1.76,1-1.86,8.58-.93,16.33-5.28,23.36-5.59,5.27-.2,9.82,1.45,12.3,8.58,2.17,6.2.42,12.2-3.1,17.68-5.17,8.06-16.33,15.81-29.87,18.4a9.45,9.45,0,0,1-6.41-1c-2.89,5.69-6,12.51-9.61,21.09-.41,1-.93,1-1.65.31C1.49,64.53.45,61.43,2,55.85c2.69-9.41,12.41-28.84,21.4-43C19.89,12.43,17.92,10.68,16.89,8.51Zm32.25,2.06C47,4.89,36.63,10.26,29.81,12.23c0,2.79-1,6.41-3.93,11.37-2.69,4.75-5.58,9.51-8.68,15.29C40.35,34.55,51.93,17.81,49.14,10.57Z"/><path d="M59.17,64.12c8.57.41,16.12-7.86,20.56-14.68.52-.83,1.35-.83,1.76.1s.11,3.72-1.76,6.41C75.39,62.26,67.43,67,59.48,67.11c-13.13.21-17.68-12.71-11-26S65.78,22.36,71,25.35a19.41,19.41,0,0,1,6.1,5.38c1.86,2.48,1,8.78-3.31,14.06-5.07,6.2-12,8.89-19.23,3C51.21,57.29,53.69,63.81,59.17,64.12Zm8.57-23.78c3.31-4.34,5.59-9.71,4.14-10.85-2.17-1.76-10.75,4.44-15.61,14.26-.31.62-.62,1.24-.83,1.76C60.51,48.71,64.75,44.27,67.74,40.34Z"/><path d="M109.71,24.94c3.41.52,6.62,5.58,4,11-2.17,4.55-7.23,12.19-9.61,17.57-2.69,6-2.07,10.85,1.65,10.65,4.24-.21,9.31-7,13.23-14.27.52-.93,1.24-.93,1.76-.1.72,1.13.52,3.51-.93,6.51-2.79,5.79-9.3,11.06-15.3,11.06-8.78,0-10.85-6.41-7.85-15.4,3.41-10.13,12.5-21.09,10.64-21.91-1-.42-7,2.48-13.64,9.71C87.59,46.34,83,56.26,78.6,66c-.41.93-1,1.34-2,.41-2.06-2.07-2.68-5.48-1-10.65,2.07-6.51,10-20.88,16.54-30.49.72-1.14,1.55-1,2.17,0,1.55,2.59,1.45,6.1.31,9.82C99.27,30.11,106.3,24.42,109.71,24.94Z"/><path d="M149.4,24.94c3.41.52,6.62,5.58,4,11-2.17,4.55-7.23,12.19-9.61,17.57-2.69,6-2.07,10.85,1.65,10.65,4.24-.21,9.31-7,13.24-14.27.51-.93,1.24-.93,1.75-.1.73,1.13.52,3.51-.93,6.51-2.79,5.79-9.3,11.06-15.3,11.06-8.78,0-10.85-6.41-7.85-15.4C139.79,41.79,148.88,30.83,147,30c-1-.42-7,2.48-13.65,9.71-6.1,6.62-10.65,16.54-15.09,26.26-.41.93-1,1.34-2,.41-2.07-2.07-2.69-5.48-1-10.65,2.07-6.51,10-20.88,16.54-30.49.72-1.14,1.55-1,2.17,0,1.55,2.59,1.45,6.1.31,9.82C139,30.11,146,24.42,149.4,24.94Z"/><path d="M177,69.28c-5.79,13.85-13.12,30.5-21.71,33.8-2,.73-3.92.73-5.89-2.17-2.06-3.1-4.13-6.72-2.06-12.81,3.1-9.31,11.88-15.51,22.12-19.54,1-2.38,2.06-5,3.2-7.44-3.2,3.31-7.13,6-11.27,5.68-7.44-.62-7.64-8.16-5.27-15a110.56,110.56,0,0,1,14.06-26.16,1.43,1.43,0,0,1,2.58,0c2.48,3.31,1.86,7.65-2,13.75a94.26,94.26,0,0,0-8,15.09c-2.07,5.07-1.86,8.68.52,8.89,4,.31,9.2-6.3,14.47-15.3,4.44-7.64,8.89-17,12.51-22.22.93-1.34,1.65-1.55,2.58-.72,1.45,1.86,2.27,6.3-.41,11.57-3.1,6-9.41,18.4-13.75,28.43a54.92,54.92,0,0,0,18.29-15.92c.52-.72,1.45-.83,1.66.21s-.1,3.31-1.86,6C192.82,61.84,185.58,65.77,177,69.28ZM151.47,97.4c1.34,2,9.82-9.3,16.23-24.5C154.26,80.65,149.61,94.81,151.47,97.4Z"/></svg>